<mxfile host="Electron" modified="2024-05-24T10:11:35.876Z" agent="Mozilla/5.0 (Windows NT 10.0; Win64; x64) AppleWebKit/537.36 (KHTML, like Gecko) draw.io/24.4.7 Chrome/124.0.6367.207 Electron/30.0.6 Safari/537.36" etag="ZBpW2jpbaQ2GndOdcgKj" version="24.4.7" type="device">
  <diagram name="Page-1" id="bWV-BgSpvrcg5UtvB8jp">
    <mxGraphModel dx="674" dy="390" grid="1" gridSize="10" guides="1" tooltips="1" connect="1" arrows="1" fold="1" page="1" pageScale="1" pageWidth="850" pageHeight="1100" math="0" shadow="0">
      <root>
        <mxCell id="0" />
        <mxCell id="1" parent="0" />
        <mxCell id="dOa9_Km76gUvNsbYtdxb-106" value="" style="rounded=0;whiteSpace=wrap;html=1;" vertex="1" parent="1">
          <mxGeometry x="800" y="250" width="350" height="390" as="geometry" />
        </mxCell>
        <mxCell id="dOa9_Km76gUvNsbYtdxb-10" style="edgeStyle=orthogonalEdgeStyle;rounded=0;orthogonalLoop=1;jettySize=auto;html=1;entryX=0.5;entryY=0;entryDx=0;entryDy=0;" edge="1" parent="1" source="dOa9_Km76gUvNsbYtdxb-2" target="dOa9_Km76gUvNsbYtdxb-6">
          <mxGeometry relative="1" as="geometry" />
        </mxCell>
        <mxCell id="dOa9_Km76gUvNsbYtdxb-13" value="[0 1 0]" style="edgeLabel;html=1;align=center;verticalAlign=middle;resizable=0;points=[];" vertex="1" connectable="0" parent="dOa9_Km76gUvNsbYtdxb-10">
          <mxGeometry y="-2" relative="1" as="geometry">
            <mxPoint as="offset" />
          </mxGeometry>
        </mxCell>
        <mxCell id="dOa9_Km76gUvNsbYtdxb-2" value="0 0 0&lt;div&gt;0 0 0&lt;/div&gt;&lt;div&gt;0 0 0&lt;/div&gt;" style="ellipse;whiteSpace=wrap;html=1;" vertex="1" parent="1">
          <mxGeometry x="380" y="260" width="80" height="60" as="geometry" />
        </mxCell>
        <mxCell id="dOa9_Km76gUvNsbYtdxb-5" value="1 0 0&lt;div&gt;0 0 0&lt;/div&gt;&lt;div&gt;0 0 0&lt;/div&gt;" style="ellipse;whiteSpace=wrap;html=1;" vertex="1" parent="1">
          <mxGeometry x="270" y="360" width="80" height="60" as="geometry" />
        </mxCell>
        <mxCell id="dOa9_Km76gUvNsbYtdxb-6" value="0 0 0&lt;div&gt;1 0 0&lt;/div&gt;&lt;div&gt;0 0 0&lt;/div&gt;" style="ellipse;whiteSpace=wrap;html=1;" vertex="1" parent="1">
          <mxGeometry x="380" y="360" width="80" height="60" as="geometry" />
        </mxCell>
        <mxCell id="dOa9_Km76gUvNsbYtdxb-7" value="0 0 0&lt;div&gt;0 0 0&lt;/div&gt;&lt;div&gt;1 0 0&lt;/div&gt;" style="ellipse;whiteSpace=wrap;html=1;" vertex="1" parent="1">
          <mxGeometry x="490" y="360" width="80" height="60" as="geometry" />
        </mxCell>
        <mxCell id="dOa9_Km76gUvNsbYtdxb-8" value="" style="endArrow=classic;html=1;rounded=0;exitX=0.5;exitY=1;exitDx=0;exitDy=0;entryX=0.5;entryY=0;entryDx=0;entryDy=0;" edge="1" parent="1" source="dOa9_Km76gUvNsbYtdxb-2" target="dOa9_Km76gUvNsbYtdxb-5">
          <mxGeometry width="50" height="50" relative="1" as="geometry">
            <mxPoint x="390" y="390" as="sourcePoint" />
            <mxPoint x="440" y="340" as="targetPoint" />
          </mxGeometry>
        </mxCell>
        <mxCell id="dOa9_Km76gUvNsbYtdxb-9" value="[1 0 0]" style="edgeLabel;html=1;align=center;verticalAlign=middle;resizable=0;points=[];" vertex="1" connectable="0" parent="dOa9_Km76gUvNsbYtdxb-8">
          <mxGeometry x="-0.0807" relative="1" as="geometry">
            <mxPoint as="offset" />
          </mxGeometry>
        </mxCell>
        <mxCell id="dOa9_Km76gUvNsbYtdxb-12" value="" style="endArrow=classic;html=1;rounded=0;exitX=0.5;exitY=1;exitDx=0;exitDy=0;entryX=0.5;entryY=0;entryDx=0;entryDy=0;" edge="1" parent="1" source="dOa9_Km76gUvNsbYtdxb-2" target="dOa9_Km76gUvNsbYtdxb-7">
          <mxGeometry width="50" height="50" relative="1" as="geometry">
            <mxPoint x="390" y="390" as="sourcePoint" />
            <mxPoint x="440" y="340" as="targetPoint" />
          </mxGeometry>
        </mxCell>
        <mxCell id="dOa9_Km76gUvNsbYtdxb-14" value="[0 0 1]" style="edgeLabel;html=1;align=center;verticalAlign=middle;resizable=0;points=[];" vertex="1" connectable="0" parent="dOa9_Km76gUvNsbYtdxb-12">
          <mxGeometry x="-0.1174" relative="1" as="geometry">
            <mxPoint x="12" y="1" as="offset" />
          </mxGeometry>
        </mxCell>
        <mxCell id="dOa9_Km76gUvNsbYtdxb-15" style="edgeStyle=orthogonalEdgeStyle;rounded=0;orthogonalLoop=1;jettySize=auto;html=1;entryX=0.5;entryY=0;entryDx=0;entryDy=0;" edge="1" parent="1" target="dOa9_Km76gUvNsbYtdxb-18">
          <mxGeometry relative="1" as="geometry">
            <mxPoint x="530" y="420" as="sourcePoint" />
          </mxGeometry>
        </mxCell>
        <mxCell id="dOa9_Km76gUvNsbYtdxb-16" value="[0 1 0]" style="edgeLabel;html=1;align=center;verticalAlign=middle;resizable=0;points=[];" vertex="1" connectable="0" parent="dOa9_Km76gUvNsbYtdxb-15">
          <mxGeometry y="-2" relative="1" as="geometry">
            <mxPoint as="offset" />
          </mxGeometry>
        </mxCell>
        <mxCell id="dOa9_Km76gUvNsbYtdxb-17" value="1 1 0&lt;div&gt;0 0 0&lt;/div&gt;&lt;div&gt;0 0 0&lt;/div&gt;" style="ellipse;whiteSpace=wrap;html=1;" vertex="1" parent="1">
          <mxGeometry x="380" y="460" width="80" height="60" as="geometry" />
        </mxCell>
        <mxCell id="dOa9_Km76gUvNsbYtdxb-18" value="1 0 0&lt;div&gt;0 1 0&lt;/div&gt;&lt;div&gt;0 0 0&lt;/div&gt;" style="ellipse;whiteSpace=wrap;html=1;" vertex="1" parent="1">
          <mxGeometry x="490" y="460" width="80" height="60" as="geometry" />
        </mxCell>
        <mxCell id="dOa9_Km76gUvNsbYtdxb-19" value="1 0 0&lt;div&gt;0 0 0&lt;/div&gt;&lt;div&gt;0 1 0&lt;/div&gt;" style="ellipse;whiteSpace=wrap;html=1;" vertex="1" parent="1">
          <mxGeometry x="600" y="460" width="80" height="60" as="geometry" />
        </mxCell>
        <mxCell id="dOa9_Km76gUvNsbYtdxb-20" value="" style="endArrow=classic;html=1;rounded=0;exitX=0.5;exitY=1;exitDx=0;exitDy=0;entryX=0.5;entryY=0;entryDx=0;entryDy=0;" edge="1" parent="1" target="dOa9_Km76gUvNsbYtdxb-17">
          <mxGeometry width="50" height="50" relative="1" as="geometry">
            <mxPoint x="530" y="420" as="sourcePoint" />
            <mxPoint x="550" y="440" as="targetPoint" />
          </mxGeometry>
        </mxCell>
        <mxCell id="dOa9_Km76gUvNsbYtdxb-21" value="[1 0 0]" style="edgeLabel;html=1;align=center;verticalAlign=middle;resizable=0;points=[];" vertex="1" connectable="0" parent="dOa9_Km76gUvNsbYtdxb-20">
          <mxGeometry x="-0.0807" relative="1" as="geometry">
            <mxPoint as="offset" />
          </mxGeometry>
        </mxCell>
        <mxCell id="dOa9_Km76gUvNsbYtdxb-22" value="" style="endArrow=classic;html=1;rounded=0;exitX=0.5;exitY=1;exitDx=0;exitDy=0;entryX=0.5;entryY=0;entryDx=0;entryDy=0;" edge="1" parent="1" target="dOa9_Km76gUvNsbYtdxb-19">
          <mxGeometry width="50" height="50" relative="1" as="geometry">
            <mxPoint x="530" y="420" as="sourcePoint" />
            <mxPoint x="550" y="440" as="targetPoint" />
          </mxGeometry>
        </mxCell>
        <mxCell id="dOa9_Km76gUvNsbYtdxb-23" value="[0 0 1]" style="edgeLabel;html=1;align=center;verticalAlign=middle;resizable=0;points=[];" vertex="1" connectable="0" parent="dOa9_Km76gUvNsbYtdxb-22">
          <mxGeometry x="-0.1174" relative="1" as="geometry">
            <mxPoint x="12" y="1" as="offset" />
          </mxGeometry>
        </mxCell>
        <mxCell id="dOa9_Km76gUvNsbYtdxb-24" value="S&lt;sub&gt;0&lt;/sub&gt;" style="ellipse;whiteSpace=wrap;html=1;aspect=fixed;" vertex="1" parent="1">
          <mxGeometry x="280" y="640" width="40" height="40" as="geometry" />
        </mxCell>
        <mxCell id="dOa9_Km76gUvNsbYtdxb-26" value="S&lt;span style=&quot;font-size: 10px;&quot;&gt;&lt;sub&gt;1&lt;/sub&gt;&lt;/span&gt;" style="ellipse;whiteSpace=wrap;html=1;aspect=fixed;" vertex="1" parent="1">
          <mxGeometry x="240" y="720" width="40" height="40" as="geometry" />
        </mxCell>
        <mxCell id="dOa9_Km76gUvNsbYtdxb-27" value="S&lt;span style=&quot;font-size: 8.33333px;&quot;&gt;&lt;sub&gt;2&lt;/sub&gt;&lt;/span&gt;" style="ellipse;whiteSpace=wrap;html=1;aspect=fixed;" vertex="1" parent="1">
          <mxGeometry x="320" y="720" width="40" height="40" as="geometry" />
        </mxCell>
        <mxCell id="dOa9_Km76gUvNsbYtdxb-28" value="" style="endArrow=classic;html=1;rounded=0;exitX=0.5;exitY=1;exitDx=0;exitDy=0;entryX=0.5;entryY=0;entryDx=0;entryDy=0;" edge="1" parent="1" source="dOa9_Km76gUvNsbYtdxb-24" target="dOa9_Km76gUvNsbYtdxb-26">
          <mxGeometry width="50" height="50" relative="1" as="geometry">
            <mxPoint x="470" y="810" as="sourcePoint" />
            <mxPoint x="520" y="760" as="targetPoint" />
          </mxGeometry>
        </mxCell>
        <mxCell id="dOa9_Km76gUvNsbYtdxb-30" value="" style="endArrow=classic;html=1;rounded=0;" edge="1" parent="1">
          <mxGeometry width="50" height="50" relative="1" as="geometry">
            <mxPoint x="300" y="680" as="sourcePoint" />
            <mxPoint x="340" y="720" as="targetPoint" />
          </mxGeometry>
        </mxCell>
        <mxCell id="dOa9_Km76gUvNsbYtdxb-31" value="S&lt;span style=&quot;font-size: 6.94444px;&quot;&gt;&lt;sub&gt;5&lt;/sub&gt;&lt;/span&gt;" style="ellipse;whiteSpace=wrap;html=1;aspect=fixed;fillColor=#f8cecc;strokeColor=#b85450;" vertex="1" parent="1">
          <mxGeometry x="360" y="800" width="40" height="40" as="geometry" />
        </mxCell>
        <mxCell id="dOa9_Km76gUvNsbYtdxb-35" style="edgeStyle=orthogonalEdgeStyle;rounded=0;orthogonalLoop=1;jettySize=auto;html=1;" edge="1" parent="1" source="dOa9_Km76gUvNsbYtdxb-32" target="dOa9_Km76gUvNsbYtdxb-34">
          <mxGeometry relative="1" as="geometry" />
        </mxCell>
        <mxCell id="dOa9_Km76gUvNsbYtdxb-32" value="S&lt;span style=&quot;font-size: 6.94444px;&quot;&gt;&lt;sub&gt;4&lt;/sub&gt;&lt;/span&gt;" style="ellipse;whiteSpace=wrap;html=1;aspect=fixed;" vertex="1" parent="1">
          <mxGeometry x="280" y="800" width="40" height="40" as="geometry" />
        </mxCell>
        <mxCell id="dOa9_Km76gUvNsbYtdxb-33" value="S&lt;span style=&quot;font-size: 6.94444px;&quot;&gt;&lt;sub&gt;3&lt;/sub&gt;&lt;/span&gt;" style="ellipse;whiteSpace=wrap;html=1;aspect=fixed;fillColor=#f8cecc;strokeColor=#b85450;" vertex="1" parent="1">
          <mxGeometry x="200" y="800" width="40" height="40" as="geometry" />
        </mxCell>
        <mxCell id="dOa9_Km76gUvNsbYtdxb-34" value="S&lt;span style=&quot;font-size: 6.94444px;&quot;&gt;&lt;sub&gt;4&lt;/sub&gt;&lt;/span&gt;" style="ellipse;whiteSpace=wrap;html=1;aspect=fixed;fillColor=#d5e8d4;strokeColor=#82b366;" vertex="1" parent="1">
          <mxGeometry x="280" y="880" width="40" height="40" as="geometry" />
        </mxCell>
        <mxCell id="dOa9_Km76gUvNsbYtdxb-36" value="" style="endArrow=classic;html=1;rounded=0;exitX=0.5;exitY=1;exitDx=0;exitDy=0;entryX=0.5;entryY=0;entryDx=0;entryDy=0;" edge="1" parent="1">
          <mxGeometry width="50" height="50" relative="1" as="geometry">
            <mxPoint x="260" y="760" as="sourcePoint" />
            <mxPoint x="220" y="800" as="targetPoint" />
          </mxGeometry>
        </mxCell>
        <mxCell id="dOa9_Km76gUvNsbYtdxb-38" value="" style="endArrow=classic;html=1;rounded=0;" edge="1" parent="1">
          <mxGeometry width="50" height="50" relative="1" as="geometry">
            <mxPoint x="260" y="760" as="sourcePoint" />
            <mxPoint x="300" y="800" as="targetPoint" />
          </mxGeometry>
        </mxCell>
        <mxCell id="dOa9_Km76gUvNsbYtdxb-39" value="" style="endArrow=classic;html=1;rounded=0;" edge="1" parent="1">
          <mxGeometry width="50" height="50" relative="1" as="geometry">
            <mxPoint x="340" y="760" as="sourcePoint" />
            <mxPoint x="380" y="800" as="targetPoint" />
          </mxGeometry>
        </mxCell>
        <mxCell id="dOa9_Km76gUvNsbYtdxb-40" value="" style="rounded=0;whiteSpace=wrap;html=1;" vertex="1" parent="1">
          <mxGeometry x="425" y="610" width="135" height="130" as="geometry" />
        </mxCell>
        <mxCell id="dOa9_Km76gUvNsbYtdxb-41" value="&lt;font style=&quot;font-size: 11px;&quot;&gt;&lt;b&gt;n &lt;/b&gt;= visit_count&lt;/font&gt;" style="text;html=1;align=center;verticalAlign=middle;whiteSpace=wrap;rounded=0;" vertex="1" parent="1">
          <mxGeometry x="420" y="610" width="100" height="30" as="geometry" />
        </mxCell>
        <mxCell id="dOa9_Km76gUvNsbYtdxb-43" value="&lt;font style=&quot;font-size: 11px;&quot;&gt;&lt;b&gt;v&amp;nbsp;&lt;/b&gt;= total_value&lt;/font&gt;" style="text;html=1;align=center;verticalAlign=middle;whiteSpace=wrap;rounded=0;" vertex="1" parent="1">
          <mxGeometry x="420" y="630" width="100" height="30" as="geometry" />
        </mxCell>
        <mxCell id="dOa9_Km76gUvNsbYtdxb-45" value="" style="ellipse;whiteSpace=wrap;html=1;aspect=fixed;fillColor=#d5e8d4;strokeColor=#82b366;" vertex="1" parent="1">
          <mxGeometry x="430" y="685" width="20" height="20" as="geometry" />
        </mxCell>
        <mxCell id="dOa9_Km76gUvNsbYtdxb-46" value="&lt;font style=&quot;font-size: 11px;&quot;&gt;- terminal success&lt;/font&gt;" style="text;html=1;align=center;verticalAlign=middle;resizable=0;points=[];autosize=1;strokeColor=none;fillColor=none;" vertex="1" parent="1">
          <mxGeometry x="450" y="680" width="110" height="30" as="geometry" />
        </mxCell>
        <mxCell id="dOa9_Km76gUvNsbYtdxb-47" value="" style="ellipse;whiteSpace=wrap;html=1;aspect=fixed;fillColor=#f8cecc;strokeColor=#b85450;" vertex="1" parent="1">
          <mxGeometry x="430" y="710" width="20" height="20" as="geometry" />
        </mxCell>
        <mxCell id="dOa9_Km76gUvNsbYtdxb-48" value="&lt;font style=&quot;font-size: 11px;&quot;&gt;- terminal failure&lt;/font&gt;" style="text;html=1;align=center;verticalAlign=middle;resizable=0;points=[];autosize=1;strokeColor=none;fillColor=none;" vertex="1" parent="1">
          <mxGeometry x="450" y="705" width="100" height="30" as="geometry" />
        </mxCell>
        <mxCell id="dOa9_Km76gUvNsbYtdxb-54" value="&lt;font style=&quot;font-size: 11px;&quot;&gt;&lt;b&gt;d&amp;nbsp;&lt;/b&gt;= depth coeff&lt;/font&gt;" style="text;html=1;align=center;verticalAlign=middle;whiteSpace=wrap;rounded=0;" vertex="1" parent="1">
          <mxGeometry x="420" y="650" width="100" height="30" as="geometry" />
        </mxCell>
        <mxCell id="dOa9_Km76gUvNsbYtdxb-68" value="" style="group" vertex="1" connectable="0" parent="1">
          <mxGeometry x="400" y="780" width="40" height="40" as="geometry" />
        </mxCell>
        <mxCell id="dOa9_Km76gUvNsbYtdxb-67" value="" style="rounded=0;whiteSpace=wrap;html=1;" vertex="1" parent="dOa9_Km76gUvNsbYtdxb-68">
          <mxGeometry y="5" width="40" height="30" as="geometry" />
        </mxCell>
        <mxCell id="dOa9_Km76gUvNsbYtdxb-51" value="&lt;font style=&quot;font-size: 10px;&quot;&gt;n = 1&lt;/font&gt;&lt;div style=&quot;font-size: 10px;&quot;&gt;&lt;font style=&quot;font-size: 10px;&quot;&gt;v = -1&lt;/font&gt;&lt;/div&gt;" style="text;html=1;align=left;verticalAlign=middle;resizable=0;points=[];autosize=1;strokeColor=none;fillColor=none;" vertex="1" parent="dOa9_Km76gUvNsbYtdxb-68">
          <mxGeometry width="50" height="40" as="geometry" />
        </mxCell>
        <mxCell id="dOa9_Km76gUvNsbYtdxb-69" value="" style="group" vertex="1" connectable="0" parent="1">
          <mxGeometry x="320" y="860" width="40" height="40" as="geometry" />
        </mxCell>
        <mxCell id="dOa9_Km76gUvNsbYtdxb-70" value="" style="rounded=0;whiteSpace=wrap;html=1;" vertex="1" parent="dOa9_Km76gUvNsbYtdxb-69">
          <mxGeometry y="5" width="40" height="30" as="geometry" />
        </mxCell>
        <mxCell id="dOa9_Km76gUvNsbYtdxb-71" value="&lt;font style=&quot;font-size: 10px;&quot;&gt;n = 1&lt;/font&gt;&lt;div style=&quot;font-size: 10px;&quot;&gt;&lt;font style=&quot;font-size: 10px;&quot;&gt;v = 1&lt;/font&gt;&lt;/div&gt;" style="text;html=1;align=left;verticalAlign=middle;resizable=0;points=[];autosize=1;strokeColor=none;fillColor=none;" vertex="1" parent="dOa9_Km76gUvNsbYtdxb-69">
          <mxGeometry width="50" height="40" as="geometry" />
        </mxCell>
        <mxCell id="dOa9_Km76gUvNsbYtdxb-79" value="" style="group" vertex="1" connectable="0" parent="1">
          <mxGeometry x="230" y="780" width="50" height="40" as="geometry" />
        </mxCell>
        <mxCell id="dOa9_Km76gUvNsbYtdxb-80" value="" style="rounded=0;whiteSpace=wrap;html=1;" vertex="1" parent="dOa9_Km76gUvNsbYtdxb-79">
          <mxGeometry y="5" width="40" height="30" as="geometry" />
        </mxCell>
        <mxCell id="dOa9_Km76gUvNsbYtdxb-81" value="&lt;font style=&quot;font-size: 10px;&quot;&gt;n = 1&lt;/font&gt;&lt;div style=&quot;font-size: 10px;&quot;&gt;&lt;font style=&quot;font-size: 10px;&quot;&gt;v = -&lt;/font&gt;&lt;span style=&quot;color: rgba(0, 0, 0, 0); font-family: monospace; font-size: 0px; background-color: initial;&quot;&gt;%3CmxGraphModel%3E%3Croot%3E%3CmxCell%20id%3D%220%22%2F%3E%3CmxCell%20id%3D%221%22%20parent%3D%220%22%2F%3E%3CmxCell%20id%3D%222%22%20value%3D%22%22%20style%3D%22group%22%20vertex%3D%221%22%20connectable%3D%220%22%20parent%3D%221%22%3E%3CmxGeometry%20x%3D%22400%22%20y%3D%22780%22%20width%3D%2240%22%20height%3D%2240%22%20as%3D%22geometry%22%2F%3E%3C%2FmxCell%3E%3CmxCell%20id%3D%223%22%20value%3D%22%22%20style%3D%22rounded%3D0%3BwhiteSpace%3Dwrap%3Bhtml%3D1%3B%22%20vertex%3D%221%22%20parent%3D%222%22%3E%3CmxGeometry%20y%3D%225%22%20width%3D%2240%22%20height%3D%2230%22%20as%3D%22geometry%22%2F%3E%3C%2FmxCell%3E%3CmxCell%20id%3D%224%22%20value%3D%22%26lt%3Bfont%20style%3D%26quot%3Bfont-size%3A%2010px%3B%26quot%3B%26gt%3Bn%20%3D%201%26lt%3B%2Ffont%26gt%3B%26lt%3Bdiv%20style%3D%26quot%3Bfont-size%3A%2010px%3B%26quot%3B%26gt%3B%26lt%3Bfont%20style%3D%26quot%3Bfont-size%3A%2010px%3B%26quot%3B%26gt%3Bv%20%3D%20-1%26lt%3B%2Ffont%26gt%3B%26lt%3B%2Fdiv%26gt%3B%22%20style%3D%22text%3Bhtml%3D1%3Balign%3Dleft%3BverticalAlign%3Dmiddle%3Bresizable%3D0%3Bpoints%3D%5B%5D%3Bautosize%3D1%3BstrokeColor%3Dnone%3BfillColor%3Dnone%3B%22%20vertex%3D%221%22%20parent%3D%222%22%3E%3CmxGeometry%20width%3D%2250%22%20height%3D%2240%22%20as%3D%22geometry%22%2F%3E%3C%2FmxCell%3E%3C%2Froot%3E%3C%2FmxGraphModel%3E&lt;/span&gt;&lt;span style=&quot;background-color: initial;&quot;&gt;1&lt;/span&gt;&lt;/div&gt;" style="text;html=1;align=left;verticalAlign=middle;resizable=0;points=[];autosize=1;strokeColor=none;fillColor=none;" vertex="1" parent="dOa9_Km76gUvNsbYtdxb-79">
          <mxGeometry width="50" height="40" as="geometry" />
        </mxCell>
        <mxCell id="dOa9_Km76gUvNsbYtdxb-82" value="" style="group" vertex="1" connectable="0" parent="1">
          <mxGeometry x="310" y="780" width="60" height="40" as="geometry" />
        </mxCell>
        <mxCell id="dOa9_Km76gUvNsbYtdxb-83" value="" style="rounded=0;whiteSpace=wrap;html=1;" vertex="1" parent="dOa9_Km76gUvNsbYtdxb-82">
          <mxGeometry y="5" width="40" height="30" as="geometry" />
        </mxCell>
        <mxCell id="dOa9_Km76gUvNsbYtdxb-84" value="&lt;font style=&quot;font-size: 10px;&quot;&gt;n = 1&lt;/font&gt;&lt;div style=&quot;font-size: 10px;&quot;&gt;&lt;font style=&quot;font-size: 10px;&quot;&gt;v = 1+d&lt;/font&gt;&lt;/div&gt;" style="text;html=1;align=left;verticalAlign=middle;resizable=0;points=[];autosize=1;strokeColor=none;fillColor=none;" vertex="1" parent="dOa9_Km76gUvNsbYtdxb-82">
          <mxGeometry width="60" height="40" as="geometry" />
        </mxCell>
        <mxCell id="dOa9_Km76gUvNsbYtdxb-85" value="" style="group" vertex="1" connectable="0" parent="1">
          <mxGeometry x="270" y="700" width="60" height="40" as="geometry" />
        </mxCell>
        <mxCell id="dOa9_Km76gUvNsbYtdxb-86" value="" style="rounded=0;whiteSpace=wrap;html=1;" vertex="1" parent="dOa9_Km76gUvNsbYtdxb-85">
          <mxGeometry y="5" width="40" height="30" as="geometry" />
        </mxCell>
        <mxCell id="dOa9_Km76gUvNsbYtdxb-87" value="&lt;font style=&quot;font-size: 10px;&quot;&gt;n = 2&lt;/font&gt;&lt;div style=&quot;font-size: 10px;&quot;&gt;&lt;font style=&quot;font-size: 10px;&quot;&gt;v = 3d&lt;/font&gt;&lt;/div&gt;" style="text;html=1;align=left;verticalAlign=middle;resizable=0;points=[];autosize=1;strokeColor=none;fillColor=none;" vertex="1" parent="dOa9_Km76gUvNsbYtdxb-85">
          <mxGeometry width="50" height="40" as="geometry" />
        </mxCell>
        <mxCell id="dOa9_Km76gUvNsbYtdxb-88" value="" style="group" vertex="1" connectable="0" parent="1">
          <mxGeometry x="360" y="700" width="60" height="40" as="geometry" />
        </mxCell>
        <mxCell id="dOa9_Km76gUvNsbYtdxb-89" value="" style="rounded=0;whiteSpace=wrap;html=1;" vertex="1" parent="dOa9_Km76gUvNsbYtdxb-88">
          <mxGeometry y="5" width="40" height="30" as="geometry" />
        </mxCell>
        <mxCell id="dOa9_Km76gUvNsbYtdxb-90" value="&lt;font style=&quot;font-size: 10px;&quot;&gt;n = 1&lt;/font&gt;&lt;div style=&quot;font-size: 10px;&quot;&gt;&lt;font style=&quot;font-size: 10px;&quot;&gt;v = -1+d&lt;/font&gt;&lt;/div&gt;" style="text;html=1;align=left;verticalAlign=middle;resizable=0;points=[];autosize=1;strokeColor=none;fillColor=none;" vertex="1" parent="dOa9_Km76gUvNsbYtdxb-88">
          <mxGeometry width="60" height="40" as="geometry" />
        </mxCell>
        <mxCell id="dOa9_Km76gUvNsbYtdxb-91" value="" style="group" vertex="1" connectable="0" parent="1">
          <mxGeometry x="320" y="620" width="100" height="40" as="geometry" />
        </mxCell>
        <mxCell id="dOa9_Km76gUvNsbYtdxb-92" value="" style="rounded=0;whiteSpace=wrap;html=1;" vertex="1" parent="dOa9_Km76gUvNsbYtdxb-91">
          <mxGeometry y="5" width="57.14285714285714" height="30" as="geometry" />
        </mxCell>
        <mxCell id="dOa9_Km76gUvNsbYtdxb-93" value="&lt;font style=&quot;font-size: 10px;&quot;&gt;n = 3&lt;/font&gt;&lt;div style=&quot;font-size: 10px;&quot;&gt;&lt;font style=&quot;font-size: 10px;&quot;&gt;v = -1+5d&lt;/font&gt;&lt;/div&gt;" style="text;html=1;align=left;verticalAlign=middle;resizable=0;points=[];autosize=1;strokeColor=none;fillColor=none;" vertex="1" parent="dOa9_Km76gUvNsbYtdxb-91">
          <mxGeometry width="70" height="40" as="geometry" />
        </mxCell>
        <mxCell id="dOa9_Km76gUvNsbYtdxb-96" value="MCTS" style="rounded=0;whiteSpace=wrap;html=1;fillColor=#fff2cc;strokeColor=#d6b656;" vertex="1" parent="1">
          <mxGeometry x="920" y="280" width="120" height="60" as="geometry" />
        </mxCell>
        <mxCell id="dOa9_Km76gUvNsbYtdxb-103" style="edgeStyle=orthogonalEdgeStyle;rounded=0;orthogonalLoop=1;jettySize=auto;html=1;entryX=0.5;entryY=1;entryDx=0;entryDy=0;" edge="1" parent="1" source="dOa9_Km76gUvNsbYtdxb-97" target="dOa9_Km76gUvNsbYtdxb-96">
          <mxGeometry relative="1" as="geometry" />
        </mxCell>
        <mxCell id="dOa9_Km76gUvNsbYtdxb-97" value="Game Matrix" style="rounded=0;whiteSpace=wrap;html=1;fillColor=#fff2cc;strokeColor=#d6b656;" vertex="1" parent="1">
          <mxGeometry x="840" y="380" width="120" height="60" as="geometry" />
        </mxCell>
        <mxCell id="dOa9_Km76gUvNsbYtdxb-101" style="edgeStyle=orthogonalEdgeStyle;rounded=0;orthogonalLoop=1;jettySize=auto;html=1;entryX=0.5;entryY=1;entryDx=0;entryDy=0;" edge="1" parent="1" source="dOa9_Km76gUvNsbYtdxb-98" target="dOa9_Km76gUvNsbYtdxb-97">
          <mxGeometry relative="1" as="geometry" />
        </mxCell>
        <mxCell id="dOa9_Km76gUvNsbYtdxb-98" value="Conditions" style="rounded=0;whiteSpace=wrap;html=1;fillColor=#fff2cc;strokeColor=#d6b656;" vertex="1" parent="1">
          <mxGeometry x="840" y="470" width="120" height="60" as="geometry" />
        </mxCell>
        <mxCell id="dOa9_Km76gUvNsbYtdxb-104" style="edgeStyle=orthogonalEdgeStyle;rounded=0;orthogonalLoop=1;jettySize=auto;html=1;entryX=0.5;entryY=1;entryDx=0;entryDy=0;" edge="1" parent="1" source="dOa9_Km76gUvNsbYtdxb-99" target="dOa9_Km76gUvNsbYtdxb-96">
          <mxGeometry relative="1" as="geometry" />
        </mxCell>
        <mxCell id="dOa9_Km76gUvNsbYtdxb-99" value="Shared Memory" style="rounded=0;whiteSpace=wrap;html=1;fillColor=#fff2cc;strokeColor=#d6b656;" vertex="1" parent="1">
          <mxGeometry x="1000" y="380" width="120" height="60" as="geometry" />
        </mxCell>
        <mxCell id="dOa9_Km76gUvNsbYtdxb-105" style="edgeStyle=orthogonalEdgeStyle;rounded=0;orthogonalLoop=1;jettySize=auto;html=1;entryX=0.5;entryY=1;entryDx=0;entryDy=0;" edge="1" parent="1" source="dOa9_Km76gUvNsbYtdxb-100" target="dOa9_Km76gUvNsbYtdxb-99">
          <mxGeometry relative="1" as="geometry" />
        </mxCell>
        <mxCell id="dOa9_Km76gUvNsbYtdxb-107" style="edgeStyle=orthogonalEdgeStyle;rounded=0;orthogonalLoop=1;jettySize=auto;html=1;entryX=0.5;entryY=1;entryDx=0;entryDy=0;" edge="1" parent="1" source="dOa9_Km76gUvNsbYtdxb-100" target="dOa9_Km76gUvNsbYtdxb-98">
          <mxGeometry relative="1" as="geometry" />
        </mxCell>
        <mxCell id="dOa9_Km76gUvNsbYtdxb-100" value="Config" style="rounded=0;whiteSpace=wrap;html=1;fillColor=#fff2cc;strokeColor=#d6b656;" vertex="1" parent="1">
          <mxGeometry x="920" y="560" width="120" height="60" as="geometry" />
        </mxCell>
      </root>
    </mxGraphModel>
  </diagram>
</mxfile>
